<svg xmlns="http://www.w3.org/2000/svg" viewBox="0 0 1752.92 324.15"><defs><style>.cls-1{fill:#f58220;}.cls-1,.cls-2{stroke:#f58220;stroke-miterlimit:10;}.cls-2{fill:none;stroke-width:12px;}</style></defs><g id="Objects"><polygon class="cls-1" points="157.62 14.68 203.21 116.44 314.07 128.35 231.38 203.15 254.31 312.27 157.62 256.74 60.92 312.27 83.86 203.15 1.16 128.35 112.03 116.44 157.62 14.68"/><polygon class="cls-1" points="513.84 14.68 559.43 116.44 670.3 128.35 587.6 203.15 610.54 312.27 513.84 256.74 417.14 312.27 440.08 203.15 357.38 128.35 468.25 116.44 513.84 14.68"/><polygon class="cls-1" points="870.06 14.68 915.65 116.44 1026.52 128.35 943.82 203.15 966.76 312.27 870.06 256.74 773.37 312.27 796.3 203.15 713.61 128.35 824.48 116.44 870.06 14.68"/><polygon class="cls-1" points="1226.28 14.68 1271.87 116.44 1382.74 128.35 1300.04 203.15 1322.98 312.27 1226.28 256.74 1129.59 312.27 1152.52 203.15 1069.83 128.35 1180.7 116.44 1226.28 14.68"/><polygon class="cls-2" points="1582.5 14.68 1628.09 116.44 1738.96 128.35 1656.26 203.15 1679.2 312.27 1582.5 256.74 1485.81 312.27 1508.74 203.15 1426.05 128.35 1536.92 116.44 1582.5 14.68"/></g></svg>